<svg width="25" height="25" viewBox="0 0 25 25" fill="none" xmlns="http://www.w3.org/2000/svg">
<path d="M25 12.1784C25 18.9039 19.5055 24.356 12.7262 24.356C10.5749 24.356 8.55398 23.8057 6.79476 22.8421L0 25L2.21492 18.4645C1.09809 16.6303 0.454886 14.4765 0.454886 12.1776C0.455702 5.45211 5.94858 0 12.7279 0C19.5063 0.00163042 25 5.45293 25 12.1784ZM12.7254 1.94183C7.03606 1.94183 2.40813 6.53471 2.40813 12.1808C2.40813 14.421 3.13855 16.4949 4.37359 18.1824L3.08556 21.9837L7.04911 20.7242C8.67953 21.7938 10.6303 22.4166 12.7254 22.4166C18.4147 22.4166 23.0443 17.8245 23.0443 12.1784C23.0459 6.53471 18.4156 1.94183 12.7254 1.94183ZM18.9243 14.9835C18.8476 14.8604 18.6471 14.7854 18.3471 14.6354C18.0479 14.4854 16.5667 13.764 16.2919 13.6662C16.0148 13.5659 15.8142 13.5153 15.6137 13.8145C15.4156 14.1137 14.8384 14.7854 14.6615 14.986C14.4863 15.1857 14.311 15.211 14.0102 15.0634C13.7094 14.9118 12.7393 14.5988 11.5898 13.5822C10.6955 12.7898 10.0915 11.814 9.91701 11.5148C9.74011 11.2165 9.89908 11.055 10.0483 10.9067C10.1828 10.7722 10.3491 10.5578 10.4999 10.3825C10.6507 10.2089 10.7004 10.0858 10.8007 9.88603C10.8993 9.68631 10.8496 9.51267 10.7754 9.36186C10.7004 9.21186 10.0996 7.74448 9.84772 7.14693C9.59745 6.5502 9.34718 6.64884 9.1711 6.64884C8.99583 6.64884 8.79529 6.62439 8.59474 6.62439C8.3942 6.62439 8.06812 6.69694 7.79339 6.99612C7.51867 7.2953 6.74096 8.01676 6.74096 9.48577C6.74096 10.9564 7.81785 12.3741 7.96866 12.573C8.12029 12.7711 10.0507 15.8843 13.1086 17.0794C16.168 18.2737 16.168 17.8751 16.7191 17.8245C17.2718 17.774 18.4995 17.1031 18.749 16.4069C19.0001 15.7074 19.0001 15.1083 18.9243 14.9835Z" fill="white"/>
</svg>
