<svg width="25" height="25" viewBox="0 0 25 25" fill="#000000" xmlns="http://www.w3.org/2000/svg">
<path d="M12.5 6.24997C14.2258 6.24997 15.625 4.85077 15.625 3.12498C15.625 1.3992 14.2258 0 12.5 0C10.7742 0 9.375 1.3992 9.375 3.12498C9.375 4.85077 10.7742 6.24997 12.5 6.24997ZM12.5 1.56252C13.3632 1.56252 14.0625 2.26251 14.0625 3.12505C14.0625 3.98758 13.3633 4.68757 12.5 4.68757C11.6367 4.68757 10.9375 3.98836 10.9375 3.12505C10.9375 2.26173 11.6367 1.56252 12.5 1.56252Z" fill="#F4F5FF"/>
<path d="M12.5 18.75C10.7742 18.75 9.375 20.1492 9.375 21.875C9.375 23.6008 10.7742 25 12.5 25C14.2258 25 15.625 23.6008 15.625 21.875C15.625 20.1493 14.2258 18.75 12.5 18.75ZM12.5 23.4375C11.6367 23.4375 10.9375 22.7383 10.9375 21.875C10.9375 21.0117 11.6367 20.3125 12.5 20.3125C13.3633 20.3125 14.0625 21.0124 14.0625 21.875C14.0625 22.7375 13.3632 23.4375 12.5 23.4375Z" fill="#F4F5FF"/>
<path d="M12.5 9.375C10.7742 9.375 9.375 10.7742 9.375 12.5C9.375 14.2258 10.7742 15.625 12.5 15.625C14.2258 15.625 15.625 14.2258 15.625 12.5C15.625 10.7742 14.2258 9.375 12.5 9.375ZM12.5 14.0624C11.6367 14.0624 10.9375 13.3632 10.9375 12.4999C10.9375 11.6366 11.6367 10.9374 12.5 10.9374C13.3633 10.9374 14.0625 11.6374 14.0625 12.4999C14.0624 13.3625 13.3632 14.0624 12.5 14.0624Z" fill="#F4F5FF"/>
</svg>
